PathFileType	4	(X/Y/Z)	C:/Users/opensim2020/Desktop/walking_exp_matlab/subject02_walking09_straight_01.trc	
DataRate	CameraRate	NumFrames	NumMarkers	Units	OrigDataRate	OrigDataStartFrame	OrigNumFrames	
100.00	100.00	4	42	mm	100.00	709	293	
Frame#	Time	LFHD			RFHD			LBHD			RBHD			C7			T10			CLAV			STRN			RBAK			LSHO			LUPA			LELB			LFRM			LWRA			LWRB			LFIN			RSHO			RUPA			RELB			RFRM			RWRA			RWRB			RFIN			LASI			RASI			LPSI			RPSI			LTHI			LKNE			LTIB			LANK			LHEE			LTOE			RTHI			RKNE			RTIB			RANK			RHEE			RTOE			*39			*40			*41			
		X1	Y1	Z1	X2	Y2	Z2	X3	Y3	Z3	X4	Y4	Z4	X5	Y5	Z5	X6	Y6	Z6	X7	Y7	Z7	X8	Y8	Z8	X9	Y9	Z9	X10	Y10	Z10	X11	Y11	Z11	X12	Y12	Z12	X13	Y13	Z13	X14	Y14	Z14	X15	Y15	Z15	X16	Y16	Z16	X17	Y17	Z17	X18	Y18	Z18	X19	Y19	Z19	X20	Y20	Z20	X21	Y21	Z21	X22	Y22	Z22	X23	Y23	Z23	X24	Y24	Z24	X25	Y25	Z25	X26	Y26	Z26	X27	Y27	Z27	X28	Y28	Z28	X29	Y29	Z29	X30	Y30	Z30	X31	Y31	Z31	X32	Y32	Z32	X33	Y33	Z33	X34	Y34	Z34	X35	Y35	Z35	X36	Y36	Z36	X37	Y37	Z37	X38	Y38	Z38	X39	Y39	Z39	X40	Y40	Z40	X41	Y41	Z41	X42	Y42	Z42	

184	1.830	-1018.68591	185.26831	1754.75159	-876.03223	171.76013	1733.02844	-1043.91626	77.60582	1652.17700	-904.50677	53.03778	1626.18799	-962.06085	36.27725	1521.80188	-950.50171	-23.19197	1251.32642	-981.95605	176.87534	1454.72888	-970.02875	225.97672	1280.84033	-886.56812	-17.54223	1354.70740	-1144.98743	91.96720	1492.82166	-1224.08337	33.92607	1302.91479	-1236.91675	1.40629	1168.14124	-1262.60059	-25.35577	1041.19897	-1257.98401	3.39684	902.70551	-1277.08362	-47.31523	920.05756	-1286.44019	-46.57342	852.31714	-783.78601	132.00424	1496.15234	-685.09698	148.37674	1311.91064	-661.40540	202.02615	1173.64929	-650.46747	271.68231	1073.95752	-680.19104	356.23535	972.00177	-640.00714	320.33801	953.17889	-644.45105	378.09879	910.19855	-1090.78564	205.34323	989.18262	-833.45099	200.09544	972.24603	-1013.17950	-4.87920	1028.54993	-899.34540	-13.29634	1028.92078	-1168.24487	193.24919	685.25629	-1142.73230	233.21158	488.30878	-1147.23938	246.56790	294.80719	-1138.71973	339.34924	86.39572	-1082.47546	326.79428	51.09151	-1174.86401	492.86649	95.80963	-786.43542	89.91451	667.29657	-833.14380	57.01050	459.32687	-833.75421	-16.03754	284.65454	-879.59259	-63.16713	97.03071	-938.04340	-101.21249	45.20346	-854.46625	81.86272	36.93933	-942.08453	60.80905	1791.98450	-3360.26440	2845.18042	1033.97864			 
185	1.840	-1020.04309	194.06703	1753.40515	-877.42548	180.64284	1731.78088	-1045.26135	86.44646	1650.88611	-905.96106	61.82269	1625.02930	-963.35425	44.99432	1520.64941	-951.80377	-14.65539	1250.17285	-983.11011	185.53017	1453.39856	-970.84357	234.54372	1279.54980	-887.84149	-9.14360	1353.62317	-1146.27698	100.78178	1491.59680	-1224.94409	41.76929	1301.78650	-1237.35852	8.23212	1167.30725	-1262.76819	-19.93972	1040.68323	-1258.43323	7.29816	902.08759	-1277.48291	-43.44875	919.71130	-1286.67480	-43.46521	852.01337	-784.99005	140.88234	1494.75220	-686.09351	157.53575	1311.03296	-662.30786	212.00554	1172.96484	-651.33716	282.58276	1073.85620	-681.20154	367.98453	972.65271	-641.00696	332.26959	953.44775	-645.30579	390.93808	911.25507	-1090.64502	214.53883	987.95850	-833.29913	208.35622	971.04749	-1014.37396	3.85006	1027.27710	-900.63153	-4.90991	1027.68372	-1168.43469	203.07175	684.05145	-1142.28333	243.77357	486.99957	-1148.20288	261.07706	294.23831	-1140.04761	358.43594	87.76727	-1084.29175	345.81836	51.75159	-1173.51343	512.53259	99.90124	-786.84204	95.61860	666.73413	-833.27167	61.24163	458.89133	-833.86353	-13.90440	285.01538	-879.53271	-62.60310	97.89188	-938.29187	-100.93927	46.11198	-854.25116	81.88789	36.88359	-943.48322	69.87956	1790.93823						 
186	1.850	-1021.62775	203.00760	1752.12927	-878.80273	189.59326	1730.57935	-1046.68750	95.25790	1649.65942	-907.26141	70.55197	1623.89685	-964.72363	53.66036	1519.45862	-953.06653	-6.03505	1248.95471	-984.36206	194.25317	1452.11023	-971.80194	243.29643	1278.30908	-889.26111	-0.72848	1352.47595	-1147.59314	109.57796	1490.11145	-1226.09021	49.84086	1300.73083	-1238.10522	15.23852	1166.28369	-1263.26538	-14.17538	1040.13745	-1259.07092	11.51272	901.02606	-1277.93542	-38.88457	919.50226	-1286.95569	-39.85553	851.63745	-786.03265	149.39511	1493.54150	-687.36841	166.46585	1309.76782	-663.31183	221.75381	1172.06006	-652.46790	293.10599	1073.52039	-682.29175	379.40424	973.18103	-642.20972	343.77460	953.63818	-646.56610	402.32178	911.77026	-1090.72559	223.84828	986.73242	-833.34320	216.54305	969.79730	-1015.67499	12.61619	1026.05579	-901.93091	3.54847	1026.53931	-1168.56836	213.42809	682.82971	-1142.25879	254.87843	486.23236	-1149.07532	274.98840	293.93774	-1141.36243	375.73694	88.93604	-1086.06604	362.86929	52.10740	-1172.30273	530.37292	103.39014	-787.30884	101.53413	666.14941	-833.32294	65.55459	458.47516	-834.06781	-11.43108	285.41748	-879.61304	-62.02797	98.69294	-938.41833	-100.67593	47.11694	-854.10248	81.96767	36.81424	-945.06488	78.73909	1789.63074						 
187	1.860	-1023.16687	211.96581	1750.76624	-880.39117	198.51860	1729.36047	-1048.19617	104.10578	1648.42932	-908.52625	79.63823	1622.83301	-966.14417	62.40001	1518.24597	-954.47437	2.68054	1247.69226	-985.72260	203.01547	1450.83618	-972.89691	252.07001	1277.10522	-890.77216	7.78468	1351.31140	-1148.97070	118.44820	1488.75098	-1227.27368	58.01027	1299.58557	-1238.85278	22.67362	1165.45239	-1263.92664	-8.03338	1039.55090	-1259.64600	16.26516	900.10333	-1278.61792	-33.99371	919.05328	-1287.30261	-35.73218	851.20050	-787.43463	158.05142	1492.42236	-688.75403	175.20053	1308.34949	-664.50903	231.12967	1171.13843	-653.51324	303.24841	1073.11292	-683.45526	390.49625	973.59656	-643.46423	354.92200	953.60016	-647.52771	414.43427	912.61438	-1090.97180	233.15895	985.47284	-833.58905	224.93346	968.47375	-1017.03400	21.44437	1024.84583	-903.32385	12.33363	1025.40674	-1168.86157	224.32100	681.74426	-1142.45239	266.52698	485.65564	-1149.60706	288.31595	293.40524	-1142.23047	391.10907	89.63529	-1087.34302	377.67938	52.45290	-1171.11450	546.07880	105.51439	-787.80646	107.65498	665.59485	-833.71594	70.39503	458.07047	-834.14960	-8.91608	285.90701	-879.63348	-61.41897	99.67198	-938.51654	-100.08657	48.19001	-853.95184	82.02352	36.77473	-946.62054	87.73987	1788.42529						 
